<svg width="850" height="230" viewBox="0 0 850 230" fill="none" xmlns="http://www.w3.org/2000/svg" role="img" aria-label="Emilien Benard - AI Software Engineer">
  <defs>
    <linearGradient id="bg" x1="0" y1="0" x2="1" y2="1">
      <stop offset="0" stop-color="#0B0E14"/>
      <stop offset="1" stop-color="#0E1620"/>
    </linearGradient>
    <radialGradient id="glow" cx="0.78" cy="0.35" r="0.55">
      <stop offset="0" stop-color="#2DD4BF" stop-opacity="0.16"/>
      <stop offset="1" stop-color="#2DD4BF" stop-opacity="0"/>
    </radialGradient>
  </defs>

  <rect width="850" height="230" rx="16" fill="url(#bg)"/>
  <rect width="850" height="230" rx="16" fill="url(#glow)"/>
  <rect x="0.5" y="0.5" width="849" height="229" rx="16" stroke="#1C2530"/>

  <!-- réseau de neurones / knowledge graph -->
  <g stroke="#2DD4BF" stroke-opacity="0.28" stroke-width="1.2">
    <line x1="585" y1="70" x2="665" y2="46"/>
    <line x1="665" y1="46" x2="758" y2="82"/>
    <line x1="585" y1="70" x2="612" y2="132"/>
    <line x1="612" y1="132" x2="702" y2="150"/>
    <line x1="702" y1="150" x2="758" y2="82"/>
    <line x1="702" y1="150" x2="792" y2="164"/>
    <line x1="612" y1="132" x2="648" y2="196"/>
    <line x1="648" y1="196" x2="702" y2="150"/>
    <line x1="665" y1="46" x2="702" y2="150"/>
  </g>
  <g fill="#2DD4BF">
    <circle cx="585" cy="70" r="5" fill-opacity="0.9"/>
    <circle cx="665" cy="46" r="6" fill-opacity="0.75"/>
    <circle cx="758" cy="82" r="5" fill-opacity="0.85"/>
    <circle cx="612" cy="132" r="6" fill-opacity="0.7"/>
    <circle cx="702" cy="150" r="7" fill-opacity="0.95"/>
    <circle cx="792" cy="164" r="4" fill-opacity="0.6"/>
    <circle cx="648" cy="196" r="4" fill-opacity="0.6"/>
  </g>

  <!-- texte -->
  <text x="48" y="96" font-family="'Segoe UI', Helvetica, Arial, sans-serif" font-size="44" font-weight="700" fill="#F2F4F8">Emilien Benard</text>
  <text x="50" y="134" font-family="'JetBrains Mono', 'Courier New', monospace" font-size="20" fill="#2DD4BF">AI Software Engineer</text>
  <rect x="50" y="152" width="58" height="3" rx="1.5" fill="#2DD4BF"/>
  <text x="50" y="190" font-family="'JetBrains Mono', 'Courier New', monospace" font-size="13.5" fill="#7A8290">LLM systems · Cloud AWS · Full-stack JavaScript</text>
</svg>
